<svg xmlns="http://www.w3.org/2000/svg" xmlns:xlink="http://www.w3.org/1999/xlink" width="900" height="320" viewBox="0 0 900 320" preserveAspectRatio="xMidYMid meet" shape-rendering="crispEdges" role="img" aria-labelledby="title-deep-ocean desc-deep-ocean" data-theme="deep-ocean" data-world="deep-ocean"><title id="title-deep-ocean">repo-aquarium · Repo Aquarium</title><desc id="desc-deep-ocean">JongHyun070105/repo-aquarium: 0 commits in 30 days, 2 evolving contributors, 0 merges, 0 closed issues, 0 reviews, 0 stars. World: deep-ocean. Creatures: contributors, jellyfish, crab, turtle, seahorse, octopus, ray, pufferfish, starfish. test.yml: success. Motion pauses when reduced motion is preferred.</desc><defs><linearGradient id="water-deep-ocean" x1="0" y1="0" x2="0" y2="1"><stop stop-color="#092a50"/><stop offset="1" stop-color="#020617"/></linearGradient><linearGradient id="ray-deep-ocean" x1="0" y1="0" x2="1" y2="1"><stop stop-color="#fff" stop-opacity=".24"/><stop offset="1" stop-color="#fff" stop-opacity="0"/></linearGradient><clipPath id="tank-deep-ocean"><rect x="8" y="8" width="884" height="304" rx="7"/></clipPath><clipPath id="water-zone-deep-ocean"><rect x="8" y="88" width="884" height="224"/></clipPath><symbol id="px-fish-0" viewBox="0 0 64 32"><path class="tail" d="M15 16 2 5v22z" fill="var(--fin)"/><path d="M14 8h8V4h24v4h8v4h6v8h-6v4h-8v4H22v-4h-8z" fill="currentColor"/><path d="M22 8h24v4H22zm-4 4h8v4h-8z" fill="var(--shine)" opacity=".8"/><path d="M46 12h6v6h-6z" fill="#020617"/><path d="M48 12h2v2h-2z" fill="#fff"/><path d="M28 24h12l-6 6z" fill="var(--fin)"/></symbol><symbol id="px-fish-1" viewBox="0 0 64 32"><path class="tail" d="M14 16 2 3h8l10 8v10L10 29H2z" fill="var(--fin)"/><path d="M14 12h8V8h30v4h8v8h-8v4H22v-4h-8z" fill="currentColor"/><path d="M25 8h7v16h-7zm14 0h6v16h-6z" fill="var(--shine)" opacity=".72"/><path d="M50 12h6v6h-6z" fill="#020617"/><path d="M52 12h2v2h-2z" fill="#fff"/></symbol><symbol id="px-fish-2" viewBox="0 0 64 32"><path class="tail" d="M16 16 4 8v16z" fill="var(--fin)"/><path d="M14 13h7V8h8V4h14v4h9v5h8v7h-8v5h-9v3H28v-3h-7v-5h-7z" fill="currentColor"/><path d="M26 8h17v5H26zm-5 5h9v4h-9z" fill="var(--shine)" opacity=".75"/><path d="M49 12h6v6h-6z" fill="#020617"/><path d="M51 12h2v2h-2z" fill="#fff"/><path d="M34 4h9l-4-4z" fill="var(--fin)"/></symbol><symbol id="px-fish-3" viewBox="0 0 64 32"><path class="tail" d="M17 16 4 5v22z" fill="var(--fin)"/><path d="M15 11h10V6h24v5h8v4h5v6h-5v4h-8v3H25v-3H15z" fill="currentColor"/><path d="M25 6h16v5H25zm-4 5h9v5h-9z" fill="var(--shine)" opacity=".78"/><path d="M49 12h6v6h-6z" fill="#020617"/><path d="M51 12h2v2h-2z" fill="#fff"/><path d="m31 25 9 7H25z" fill="var(--fin)"/></symbol><symbol id="bubble" viewBox="0 0 8 8"><path d="M2 0h4v2h2v4H6v2H2V6H0V2h2z" fill="none" stroke="#164e78" stroke-width="1"/><path d="M2 2h2v1H2z" fill="#fff" opacity=".7"/></symbol><symbol id="pearl" viewBox="0 0 12 12"><path d="M2 2h2V0h4v2h2v2h2v4h-2v2H8v2H4v-2H2V8H0V4h2z" fill="#71fff0"/><path d="M3 2h3v2H3z" fill="#fff"/></symbol><symbol id="spark" viewBox="0 0 12 12"><path d="M5 0h2v4h4v2H7v5H5V6H1V4h4z" fill="#71fff0"/></symbol><symbol id="jelly" viewBox="0 0 44 54"><path d="M8 8h4V4h20v4h4v4h4v17H4V12h4z" fill="#d87cff"/><path d="M10 10h6v6h-6zm20 0h5v6h-5z" fill="#fff" opacity=".35"/><path d="M8 29h6v17h-4v8H6v-8h2zm12 0h6v21h-6zm14 0h4v17h-4v8h-4v-8h2z" fill="#7657c9"/></symbol><symbol id="crab" viewBox="0 0 50 30"><path d="M12 12h26v14H12z" fill="#7657c9"/><path d="M16 8h5v5h-5zm13 0h5v5h-5z" fill="#020617"/><path d="M4 10h8v5H8v5H2v-5H0V8h4zm34 0h8V8h4v7h-2v5h-6v-5h-4z" fill="#d87cff"/><path d="M13 26h7v4h-9zm17 0h7l2 4h-9z" fill="#020617"/></symbol><symbol id="turtle" viewBox="0 0 64 40"><path d="M15 11h8V7h24v4h8v5h7v11h-7v5h-8v4H23v-4h-8z" fill="var(--accent, #124e66)"/><path d="M24 11h22v4h5v14h-5v4H24v-4h-5V15h5z" fill="var(--body, #22d3a7)"/><path d="M28 15h14v4h5v7h-5v4H28v-4h-5v-7h5z" fill="var(--shine, #33476d)"/><path d="M55 16h8v10h-8z" fill="var(--body, #22d3a7)"/><path d="M59 18h3v3h-3z" fill="#020617"/><path class="flipper top" d="M22 11 10 1H4l8 15z" fill="var(--accent, #124e66)"/><path class="flipper bottom" d="m24 31-13 8H5l8-13z" fill="var(--accent, #124e66)"/></symbol><symbol id="seahorse" viewBox="0 0 34 60"><path d="M13 4h12v4h5v13h-5v5h-8v7h8v12h-5v7h-6v4H5v-5h8v-5h5v-8h-8V23H5V11h4V7h4z" fill="#d87cff"/><path d="M8 14h12v5H8zm9 15h8v4h-8z" fill="#7657c9"/><path d="M22 11h5v5h-5z" fill="#020617"/><path d="M23 11h2v2h-2z" fill="#fff"/><path d="M7 23 0 18v14z" fill="#7657c9"/></symbol><symbol id="octopus" viewBox="0 0 52 54"><path d="M10 9h5V4h22v5h5v5h5v21H5V14h5z" fill="var(--body, #7657c9)"/><path d="M14 13h7v7h-7zm17 0h7v7h-7z" fill="#020617"/><path d="M16 13h2v2h-2zm17 0h2v2h-2z" fill="#fff"/><path class="tentacle t1" d="M7 33h8v13h-4v7H4v-5h4z" fill="var(--accent, #d87cff)"/><path class="tentacle t2" d="M18 33h7v20h-7z" fill="var(--accent, #d87cff)"/><path class="tentacle t3" d="M28 33h7v20h-7z" fill="var(--accent, #d87cff)"/><path class="tentacle t4" d="M38 33h8v15h4v5h-8v-7h-4z" fill="var(--accent, #d87cff)"/></symbol><symbol id="ray" viewBox="0 0 72 38"><path d="M4 21 22 8h28l18 13-18 10H22z" fill="#33476d"/><path d="M17 16h38v9H17z" fill="#164e78" opacity=".55"/><path d="m36 29 7 9H31z" fill="#111b34"/><path d="M23 13h5v5h-5zm21 0h5v5h-5z" fill="#020617"/><path d="M25 13h2v2h-2zm21 0h2v2h-2z" fill="#fff"/></symbol><symbol id="pufferfish" viewBox="0 0 48 42"><path d="M10 9h6V4h20v5h6v6h5v15h-5v6h-6v5H16v-5h-6v-6H5V15h5z" fill="#71fff0"/><path d="M0 21 8 13v16zM17 4 21 0l4 4zm12 0 4-4 3 5zM16 38l5 4 4-5zm16-1 3 5 4-6z" fill="#d87cff"/><path d="M34 13h7v7h-7z" fill="#020617"/><path d="M36 13h2v2h-2z" fill="#fff"/><path d="M37 25h8v3h-8z" fill="#020617"/></symbol><symbol id="starfish" viewBox="0 0 38 38"><path d="m19 0 5 12 13-4-8 11 9 10-14-3-5 12-5-12-14 3 9-10L1 8l13 4z" fill="#7657c9"/><path d="M16 14h6v6h-6zm-4 9h4v4h-4zm12 0h4v4h-4z" fill="#d87cff"/></symbol><symbol id="px-abyss-fish" viewBox="0 0 64 32"><path class="tail" d="M16 16 3 5v22z" fill="var(--fin)"/><path d="M14 10h9V6h25v4h8v5h7v7h-7v4H23v-4h-9z" fill="currentColor"/><path d="M24 10h23v4H24z" fill="var(--shine)" opacity=".45"/><path d="M48 13h6v6h-6z" fill="#020617"/><path d="M51 14h2v2h-2z" fill="#71fff0"/><path d="M58 12h4v2h-4zm4-4h2v4h-2z" fill="#71fff0"/></symbol><symbol id="px-code-fish" viewBox="0 0 64 32"><path class="tail" d="M16 16 3 7v18z" fill="var(--fin)"/><path d="M15 9h10V5h24v4h8v5h6v8h-6v5H25v-4H15z" fill="currentColor"/><path d="M24 10h7v4h-7zm10 0h14v4H34zm-10 8h18v4H24z" fill="var(--shine)"/><path d="M49 13h5v5h-5z" fill="#020617"/></symbol><symbol id="px-sunset-fish" viewBox="0 0 64 32"><path class="tail" d="M17 16 2 4l6 12-6 12z" fill="var(--fin)"/><path d="M15 11h9V6h27v5h7v4h5v7h-5v4h-7v3H24v-3h-9z" fill="currentColor"/><path d="M24 7h21v5H24zm0 11h27v4H24z" fill="var(--shine)" opacity=".75"/><path d="M50 13h5v5h-5z" fill="#020617"/></symbol><symbol id="px-ice-fish" viewBox="0 0 64 32"><path class="tail" d="M17 16 4 6v20z" fill="var(--fin)"/><path d="M15 10h10V6h26v4h7v5h5v7h-5v4h-8v3H25v-3H15z" fill="currentColor"/><path d="M24 7h18l8 5H24zm5 13h19v4H29z" fill="var(--shine)" opacity=".85"/><path d="M50 13h5v5h-5z" fill="#020617"/></symbol><symbol id="px-cyber-fish" viewBox="0 0 64 32"><path class="tail" d="M17 16 3 5h6l10 7v8L9 27H3z" fill="var(--fin)"/><path d="M16 9h9V5h25v4h8v5h5v8h-5v5h-8v3H25v-4h-9z" fill="currentColor"/><path d="M23 10h9v4h-9zm13 0h13v4H36zM25 19h22v3H25z" fill="var(--shine)"/><path d="M50 13h6v6h-6z" fill="#020617"/><path d="M52 14h3v3h-3z" fill="#71fff0"/></symbol><symbol id="theme-reef-sprite" viewBox="0 0 48 44"><path d="M8 17h5V9h7V4h9v5h7v8h5v13h-5v7h-7v5H18v-5h-7v-7H6V17z" fill="#d87cff"/><path d="M14 18h20v7H14z" fill="#71fff0"/><path d="M15 13h5v5h-5zm13 0h5v5h-5z" fill="#020617"/></symbol><symbol id="theme-angler" viewBox="0 0 62 44"><path d="M13 12h10V7h23v5h8v6h6v14h-6v5h-8v4H23v-4H13z" fill="#33476d"/><path d="M13 22 2 10v25z" fill="#7657c9"/><path d="M44 16h7v7h-7z" fill="#020617"/><path d="M47 17h3v3h-3z" fill="#71fff0"/><path d="M49 11V5h8V1h4v8h-8v4z" fill="#71fff0"/></symbol><symbol id="theme-octocat" viewBox="0 0 52 52"><path d="m11 13 5-11 8 8h8l8-8 3 12 5 7v18h-7v8h-9v4H20v-4h-9v-8H4V21z" fill="var(--body, #d9f9ff)"/><path d="M14 20h24v17H14z" fill="var(--accent, #33476d)"/><path d="M17 23h6v6h-6zm13 0h6v6h-6z" fill="#020617"/><path d="M20 35h12v4H20z" fill="var(--shine, #71fff0)"/></symbol><symbol id="theme-sunbird" viewBox="0 0 58 42"><path d="M7 18h13l8-9h10l6 6h9v13h-9l-8 8H20l-7-7H2z" fill="var(--body, #d87cff)"/><path d="m21 18 8-16 9 16z" fill="var(--shine, #71fff0)"/><path d="M42 18h7v6h-7z" fill="#020617"/><path d="m6 18-6-8v22l8-5z" fill="var(--accent, #7657c9)"/></symbol><symbol id="theme-penguin" viewBox="0 0 42 56"><path d="M10 8h5V3h13v5h5v7h5v28h-5v8h-7v4H16v-4H9v-8H4V15h6z" fill="var(--body, #020617)"/><path d="M13 17h16v8h5v18h-5v7H13v-7H8V25h5z" fill="#f5fbff"/><path d="M14 12h5v5h-5zm10 0h5v5h-5z" fill="var(--shine, #71fff0)"/><path d="m19 20 5 4-5 4z" fill="var(--accent, #d87cff)"/></symbol><symbol id="theme-drone" viewBox="0 0 62 42"><path d="M12 12h38v22H12z" fill="var(--body, #111b34)"/><path d="M17 8h28v4H17zm0 26h28v4H17z" fill="var(--shine, #71fff0)"/><path d="M18 17h9v9h-9zm17 0h9v9h-9z" fill="#020617"/><path d="M21 19h4v4h-4zm17 0h4v4h-4z" fill="var(--shine, #71fff0)"/><path d="M3 5h17v4H3zm39 0h17v4H42zM7 1h4v12H7zm44 0h4v12h-4z" fill="var(--accent, #d87cff)"/><path d="M26 29h10v4H26z" fill="var(--shine, #71fff0)"/></symbol><symbol id="legend-whale" viewBox="0 0 220 88"><path d="M32 34h18V24h93v7h24v8h18v11h18v20h-18v8h-30v7H68v-7H44v-8H25V53H8V36h24z" fill="currentColor"/><path d="M143 31 166 8h16l-12 27zm27 4 23-22h17l-18 31z" fill="var(--fin)"/><path d="M48 50h16v8H48z" fill="var(--shine)"/><path d="M156 46h10v10h-10z" fill="#020617"/></symbol><symbol id="legend-kraken" viewBox="0 0 150 104"><path d="M35 12h12V5h56v7h12v12h10v42H25V24h10z" fill="currentColor"/><path d="M45 28h14v14H45zm45 0h14v14H90z" fill="#020617"/><path d="M49 30h5v5h-5zm45 0h5v5h-5z" fill="#71fff0"/><path d="M28 63h18v25H35v14H18V91h9zm28 0h16v41H56zm26 0h16v41H82zm26 0h18v28h9v11h-20V88h-7z" fill="var(--fin)"/></symbol><style>text{font-family:ui-monospace,SFMono-Regular,Menlo,Consolas,monospace;fill:#d9f9ff}.heading{font-size:18px;font-weight:700;letter-spacing:.5px}.meta{font-size:11px;fill:#8edcf2}.legend{font-size:10px;fill:#d9f9ff}.tiny{font-size:8px;font-weight:700;fill:#d9f9ff}.fish-name{font-size:8px;font-weight:700;fill:#fff}.fish-nameplate rect{fill:#020617;opacity:.82}.surface{animation:surface 5s steps(4,end) infinite}.theme-accent{animation:accent 6s steps(4,end) infinite alternate}.ray-a{animation:ray 8s steps(8,end) infinite}.ray-b{animation:ray 11s steps(8,end) -4s infinite}.far{animation:drift 16s steps(16,end) infinite}.plant-motion{transform-box:fill-box;transform-origin:bottom center;animation:sway 4.6s steps(6,end) infinite alternate}.plant-motion.alt{animation-delay:-2.3s}.plant-root{fill:#124e66}.plant-mound{fill:#172238}.bubble{animation:rise var(--rise) steps(18,end) var(--wait) infinite}.b1{opacity:.55}.b2{opacity:.8}.b3{opacity:.4}.free-roam{animation:roam-a var(--roam-time) steps(30,end) var(--phase) infinite}.free-roam.roam-1{animation-name:roam-b}.free-roam.roam-2{animation-name:roam-c}.theme-character{transform-origin:center;animation:character-pulse 3.8s steps(4,end) infinite alternate}.legendary{transform-origin:center;animation:legendary-pulse 6s steps(6,end) infinite alternate}.meteor{animation:meteor 3.8s steps(6,end) infinite}.m1,.m4{animation-delay:-1.2s}.m2,.m5{animation-delay:-2.4s}.aurora{animation:aurora 7s steps(6,end) infinite alternate}.review-star{animation:twinkle 2.4s steps(3,end) infinite}.r1,.r4,.r7{animation-delay:-.8s}.r2,.r5{animation-delay:-1.6s}.lightning{animation:lightning 2.6s steps(2,end) infinite}.rain{animation:rain 1.8s steps(5,end) infinite}.rain-1,.rain-4,.rain-7{animation-delay:-.6s}.rain-2,.rain-5,.rain-8{animation-delay:-1.2s}.swimmer{animation:contributor-wander var(--swim) steps(48,end) var(--delay) infinite}.contributor-facing{transform-box:fill-box;transform-origin:32px center;animation:contributor-turn var(--swim) steps(1,end) var(--delay) infinite}.evolution-mark{animation:twinkle 3s steps(3,end) infinite}.stage-1 .evolution-mark{opacity:.7}.stage-3 .evolution-mark{animation-duration:1.8s}.tail{transform-box:fill-box;transform-origin:right center;animation:tail .45s steps(2,end) infinite}.pearl{animation:twinkle 2.8s steps(3,end) infinite}.p1{animation-delay:-.7s}.p2{animation-delay:-1.4s}.p3{animation-delay:-2.1s}.jelly-motion{animation:jelly 4.2s steps(5,end) var(--phase) infinite}.crab-motion{animation:crab 4.6s steps(6,end) var(--phase) infinite}.turtle-motion{animation:turtle 3.8s steps(5,end) var(--phase) infinite}.seahorse-motion{animation:seahorse 4.8s steps(6,end) var(--phase) infinite}.octopus-motion{animation:octopus 4s steps(5,end) var(--phase) infinite}.ray-motion{animation:ray-swim 3.8s steps(5,end) var(--phase) infinite}.puffer-motion{transform-origin:center;animation:puffer 5s steps(4,end) var(--phase) infinite}.starfish-motion{transform-origin:center;animation:starfish 8s steps(12,end) var(--phase) infinite}.flipper{transform-box:fill-box;transform-origin:right center;animation:flipper 1.2s steps(2,end) infinite alternate}.tentacle{transform-box:fill-box;transform-origin:top center;animation:tentacle 1.8s steps(3,end) infinite alternate}.t2,.t4{animation-delay:-.9s}.chest.open .lid{transform-box:fill-box;transform-origin:left bottom;animation:chest 4s steps(3,end) infinite}.buoy.in-progress{animation:signal 1.5s steps(2,end) infinite}.buoy.failure{animation:signal .8s steps(2,end) infinite}@keyframes surface{50%{transform:translateX(-12px)}}@keyframes accent{to{opacity:.7}}@keyframes ray{50%{opacity:.35;transform:translateX(25px)}}@keyframes drift{to{transform:translateX(35px)}}@keyframes sway{from{transform:skewX(-2.5deg)}to{transform:skewX(2.5deg)}}@keyframes roam-a{0%,100%{transform:translate(0,0)}25%{transform:translate(var(--roam-x-half),var(--roam-y))}50%{transform:translate(var(--roam-x),var(--roam-y-half))}75%{transform:translate(var(--roam-x-third),0)}}@keyframes roam-b{0%,100%{transform:translate(0,var(--roam-y-half))}25%{transform:translate(var(--roam-x-third),0)}50%{transform:translate(var(--roam-x),var(--roam-y))}75%{transform:translate(var(--roam-x-half),var(--roam-y-half))}}@keyframes roam-c{0%,100%{transform:translate(0,0)}33%{transform:translate(var(--roam-x),var(--roam-y-half))}66%{transform:translate(var(--roam-x-third),var(--roam-y))}}@keyframes character-pulse{to{transform:rotate(3deg) scale(1.04)}}@keyframes legendary-pulse{to{transform:scale(1.03)}}@keyframes contributor-wander{0%,100%{transform:translate(var(--x0),var(--y0)) scale(var(--scale))}25%{transform:translate(var(--x1),var(--y1)) scale(var(--scale))}50%{transform:translate(var(--x2),var(--y2)) scale(var(--scale))}75%{transform:translate(var(--x3),var(--y3)) scale(var(--scale))}}@keyframes contributor-turn{0%,49%{transform:scaleX(1)}50%,99%{transform:scaleX(-1)}100%{transform:scaleX(1)}}@keyframes meteor{from{transform:translate(35px,-35px);opacity:0}35%{opacity:.9}to{transform:translate(-35px,35px);opacity:0}}@keyframes aurora{to{transform:translateX(22px);opacity:.55}}@keyframes lightning{0%,45%,55%,100%{opacity:0}50%{opacity:1}}@keyframes rain{from{transform:translate(15px,-25px)}to{transform:translate(-15px,70px)}}@keyframes rise{from{transform:translateY(15px);opacity:0}15%{opacity:.8}to{transform:translateY(-210px);opacity:0}}@keyframes tail{50%{transform:scaleX(.55)}}@keyframes twinkle{50%{opacity:.35}}@keyframes jelly{50%{transform:translateY(8px) scaleY(.92)}}@keyframes crab{50%{transform:translateY(-3px)}}@keyframes turtle{50%{transform:rotate(3deg)}}@keyframes seahorse{50%{transform:translateY(7px) rotate(2deg)}}@keyframes octopus{50%{transform:translateY(5px) scaleY(.95)}}@keyframes ray-swim{50%{transform:rotate(-3deg)}}@keyframes puffer{50%{transform:scale(1.05)}}@keyframes starfish{to{transform:rotate(18deg)}}@keyframes flipper{to{transform:rotate(13deg)}}@keyframes tentacle{to{transform:skewX(6deg)}}@keyframes chest{50%{transform:rotate(-7deg)}}@keyframes signal{50%{opacity:.45}}@media(prefers-reduced-motion:reduce){*{animation:none!important}.swimmer{transform:translate(var(--rest),var(--rest-y)) scale(var(--scale))}.contributor-facing{transform:none}.bubble{opacity:.65}.chest.open .lid{transform:rotate(-18deg) translateY(-7px)}}</style></defs><g clip-path="url(#tank-deep-ocean)"><rect width="900" height="320" fill="#06132d"/><rect y="88" width="900" height="232" fill="url(#water-deep-ocean)"/><g class="surface" opacity=".8"><path d="M0 92h50v-4h48v4h48v4h52v-4h52v-4h50v4h52v4h48v-4h50v-4h50v4h50v4h52v-4h52v-4h48v4h50v4h48v-4h50v-4h52v4h50v8H0z" fill="#164e78"/></g><path class="ray-a" d="m85 88 82 0 92 191H198z" fill="url(#ray-deep-ocean)"/><path class="ray-b" d="m390 88 58 0 68 165h-45z" fill="url(#ray-deep-ocean)"/><path class="ray-a" d="m690 88 68 0 55 143h-38z" fill="url(#ray-deep-ocean)"/><g class="far" opacity=".45"><path d="M-30 263h90l20-35 24 35h77l32-29 37 29h91l29-38 42 38h93l37-28 26 28h98l26-37 36 37h140v57H-30z" fill="#111b34"/></g><g transform="translate(28 58)"><rect width="10" height="10" fill="#25e6c8"/><text x="15" y="9" class="legend">TypeScript 95%</text></g><g transform="translate(202 58)"><rect width="10" height="10" fill="#69b7ff"/><text x="15" y="9" class="legend">JavaScript 5%</text></g><text x="28" y="31" class="heading">repo-aquarium</text><text x="28" y="48" class="meta">0 commits / 30d · 0 stars · last commit 51d ago</text><g clip-path="url(#water-zone-deep-ocean)"><use href="#bubble" x="28" y="118" width="4" height="4" class="bubble b0" style="--rise:5.6s;--wait:-0s"/><use href="#bubble" x="111" y="165" width="6" height="6" class="bubble b1" style="--rise:6.3s;--wait:-0.7s"/><use href="#bubble" x="194" y="212" width="8" height="8" class="bubble b2" style="--rise:7.0s;--wait:-1.4s"/><use href="#bubble" x="277" y="259" width="10" height="10" class="bubble b3" style="--rise:7.7s;--wait:-2.0999999999999996s"/><use href="#bubble" x="360" y="136" width="4" height="4" class="bubble b0" style="--rise:8.4s;--wait:-2.8s"/><use href="#bubble" x="443" y="183" width="6" height="6" class="bubble b1" style="--rise:9.1s;--wait:-3.5s"/><use href="#bubble" x="526" y="230" width="8" height="8" class="bubble b2" style="--rise:9.8s;--wait:-4.199999999999999s"/><use href="#bubble" x="609" y="277" width="10" height="10" class="bubble b3" style="--rise:5.6s;--wait:-4.8999999999999995s"/><g class="swimmer contributor-wander stage-1" data-contributor="JongHyun070105" data-contributor-form="octopus" data-evolution-stage="1" data-activity-points="10" style="--swim:20.8s;--delay:-8s;--x0:50px;--x1:300px;--x2:748px;--x3:410px;--y0:108px;--y1:126px;--y2:104px;--y3:118px;--rest:72px;--rest-y:112px;--scale:0.92"><title>JongHyun070105 · abyss octopod · evolution 1 · 0 commits · 0 PRs · 0 reviews · TypeScript</title><g class="contributor-facing"><use href="#octopus" x="6" y="0" width="52" height="54" style="--body:#ca7cff;--accent:#d87cff;--shine:#fff2a6"/><g class="evolution-mark" data-evolution="hatchling"><path d="M55 25h5v5h-5z" fill="#71fff0"/></g></g><g class="fish-nameplate" transform="translate(32 -2)"><rect x="-46" y="-12" width="92" height="11" rx="2"/><text class="fish-name" y="-4" text-anchor="middle" textLength="84" lengthAdjust="spacingAndGlyphs">JongHyun070105</text></g></g><g class="swimmer contributor-wander stage-1" data-contributor="github-actions[bot]" data-contributor-form="octopus" data-evolution-stage="1" data-activity-points="0" style="--swim:22.2s;--delay:-9.7s;--x0:68px;--x1:328px;--x2:726px;--x3:434px;--y0:145px;--y1:167px;--y2:133px;--y3:171px;--rest:250px;--rest-y:152px;--scale:0.91"><title>github-actions[bot] · abyss octopod · evolution 1 · 0 commits · 0 PRs · 0 reviews · JavaScript</title><g class="contributor-facing"><use href="#octopus" x="6" y="0" width="52" height="54" style="--body:#ca7cff;--accent:#d87cff;--shine:#dffbff"/><g class="evolution-mark" data-evolution="hatchling"><path d="M55 25h5v5h-5z" fill="#71fff0"/></g></g><g class="fish-nameplate" transform="translate(32 -2)"><rect x="-60" y="-12" width="120" height="11" rx="2"/><text class="fish-name" y="-4" text-anchor="middle" textLength="112" lengthAdjust="spacingAndGlyphs">github-actions[bot]</text></g></g><g data-creature="jellyfish" data-safe-zone="underwater" data-anchor-x="650" data-anchor-y="120" data-width="44" data-height="54" data-motion-x-min="0" data-motion-x-max="120" data-motion-y-min="0" data-motion-y-max="80" transform="translate(650 120)"><title>Jellyfish</title><g class="free-roam roam-0" style="--phase:0s;--roam-time:11s;--roam-x:120px;--roam-x-half:60px;--roam-x-third:40px;--roam-y:80px;--roam-y-half:40px"><g class="jelly-motion"><use href="#jelly" width="44" height="54"/></g></g></g><g data-creature="crab" data-safe-zone="underwater" data-anchor-x="205" data-anchor-y="248" data-width="50" data-height="30" data-motion-x-min="0" data-motion-x-max="150" data-motion-y-min="0" data-motion-y-max="20" transform="translate(205 248)"><title>Crab</title><g class="free-roam roam-1" style="--phase:-1.3s;--roam-time:12.3s;--roam-x:150px;--roam-x-half:75px;--roam-x-third:50px;--roam-y:20px;--roam-y-half:10px"><g class="crab-motion"><use href="#crab" width="50" height="30"/></g></g></g><g data-creature="turtle" data-safe-zone="underwater" data-anchor-x="82" data-anchor-y="150" data-width="64" data-height="40" data-motion-x-min="0" data-motion-x-max="120" data-motion-y-min="0" data-motion-y-max="70" transform="translate(82 150)"><title>Sea turtle</title><g class="free-roam roam-2" style="--phase:-2.6s;--roam-time:13.6s;--roam-x:120px;--roam-x-half:60px;--roam-x-third:40px;--roam-y:70px;--roam-y-half:35px"><g class="turtle-motion"><use href="#turtle" width="64" height="40"/></g></g></g><g data-creature="seahorse" data-safe-zone="underwater" data-anchor-x="618" data-anchor-y="130" data-width="34" data-height="60" data-motion-x-min="0" data-motion-x-max="80" data-motion-y-min="0" data-motion-y-max="80" transform="translate(618 130)"><title>Seahorse</title><g class="free-roam roam-0" style="--phase:-3.9s;--roam-time:14.9s;--roam-x:80px;--roam-x-half:40px;--roam-x-third:27px;--roam-y:80px;--roam-y-half:40px"><g class="seahorse-motion"><use href="#seahorse" width="34" height="60"/></g></g></g><g data-creature="octopus" data-safe-zone="underwater" data-anchor-x="454" data-anchor-y="180" data-width="52" data-height="54" data-motion-x-min="0" data-motion-x-max="90" data-motion-y-min="0" data-motion-y-max="50" transform="translate(454 180)"><title>Octopus</title><g class="free-roam roam-1" style="--phase:-5.2s;--roam-time:16.2s;--roam-x:90px;--roam-x-half:45px;--roam-x-third:30px;--roam-y:50px;--roam-y-half:25px"><g class="octopus-motion"><use href="#octopus" width="52" height="54"/></g></g></g><g data-creature="ray" data-safe-zone="underwater" data-anchor-x="304" data-anchor-y="110" data-width="72" data-height="38" data-motion-x-min="0" data-motion-x-max="120" data-motion-y-min="0" data-motion-y-max="80" transform="translate(304 110)"><title>Manta ray</title><g class="free-roam roam-2" style="--phase:-6.5s;--roam-time:17.5s;--roam-x:120px;--roam-x-half:60px;--roam-x-third:40px;--roam-y:80px;--roam-y-half:40px"><g class="ray-motion"><use href="#ray" width="72" height="38"/></g></g></g><g data-creature="pufferfish" data-safe-zone="underwater" data-anchor-x="530" data-anchor-y="116" data-width="48" data-height="42" data-motion-x-min="0" data-motion-x-max="100" data-motion-y-min="0" data-motion-y-max="70" transform="translate(530 116)"><title>Pufferfish</title><g class="free-roam roam-0" style="--phase:-0.8s;--roam-time:18.8s;--roam-x:100px;--roam-x-half:50px;--roam-x-third:33px;--roam-y:70px;--roam-y-half:35px"><g class="puffer-motion"><use href="#pufferfish" width="48" height="42"/></g></g></g><g data-creature="starfish" data-safe-zone="underwater" data-anchor-x="770" data-anchor-y="190" data-width="38" data-height="38" data-motion-x-min="0" data-motion-x-max="60" data-motion-y-min="0" data-motion-y-max="50" transform="translate(770 190)"><title>Starfish</title><g class="free-roam roam-1" style="--phase:-2.1s;--roam-time:20.1s;--roam-x:60px;--roam-x-half:30px;--roam-x-third:20px;--roam-y:50px;--roam-y-half:25px"><g class="starfish-motion"><use href="#starfish" width="38" height="38"/></g></g></g><g data-theme-character="theme-angler" data-world="deep-ocean" data-motion-x-max="150" data-motion-y-max="55" transform="translate(126 180)"><title>Abyss lantern keeper</title><g class="free-roam roam-1" style="--phase:-2.7s;--roam-time:13s;--roam-x:150px;--roam-x-half:75px;--roam-x-third:50px;--roam-y:55px;--roam-y-half:28px"><g class="theme-character"><use href="#theme-angler" width="62" height="44"/></g></g></g></g><g class="buoy success" transform="translate(798 90)"><path d="M31 0h10v18H31z" fill="#020617"/><rect x="18" y="16" width="36" height="13" fill="#39d353"/><path d="M13 29h46l-6 23H19z" fill="#f5f7fa"/><path d="M16 35h40l-2 9H18z" fill="#39d353"/><g transform="translate(25 2) scale(.72)"><path d="m4 10 4 4L17 5l3 3L8 19 1 12z" fill="#fff"/></g><path d="M35 52h4v31h-4z" fill="#020617"/><text x="36" y="96" text-anchor="middle" class="tiny">SUCCESS</text><title>test.yml: success</title></g><g class="near"><path d="M0 285h900v35H0z" fill="#283853"/><path d="M0 300h900v20H0z" fill="#172238"/><path d="M0 287h65v4h72v-3h80v5h85v-4h70v3h90v-5h78v4h92v-3h90v5h89v-4h89v31H0z" fill="#283853"/></g><g data-scene-object="plant" data-safe-zone="underwater" data-root-y="287" transform="translate(52 220)"><g class="plant-motion"><path d="M10 67V12h8v55zm8-31 20-22v10L18 47zm-8 8L0 28v-9l10 13z" fill="#124e66"/><path d="M14 57V25h4v32z" fill="#22d3a7"/></g><rect class="plant-root" x="10" y="61" width="8" height="12"/><path class="plant-mound" d="M3 67h24l5 7H-2z"/></g><g data-scene-object="plant" data-safe-zone="underwater" data-root-y="287" transform="translate(590 209)"><g class="plant-motion alt"><path d="M12 78V15h8v63zm8-37 21-24v12L20 52zM12 51 0 35V23l12 15z" fill="#124e66"/><path d="M16 65V24h4v41z" fill="#22d3a7"/></g><rect class="plant-root" x="12" y="71" width="8" height="13"/><path class="plant-mound" d="M4 78h25l5 7H-2z"/></g><g transform="translate(805 250)"><path d="M20 55V13h7v42zM8 54V31h7v23zm19-25 12-15v13L27 42zM20 27 9 14V4l11 12z" fill="#7657c9"/><path d="M23 40V20h4v20z" fill="#d87cff"/></g><g class="chest closed" transform="translate(680 249)"><g class="lid" transform=""><path d="M9 1h78v11H9z" fill="#020617"/><path d="M13 4h70v8H13z" fill="#b26a32"/><path d="M44 2h10v12H44z" fill="#71fff0"/></g><path d="M7 13h82v35H7z" fill="#020617"/><path d="M12 17h72v26H12z" fill="#8b4b2b"/><path d="M43 16h12v18H43z" fill="#71fff0"/><path d="M20 21h16v5H20zm42 0h15v5H62z" fill="#d58942"/><title>Latest release: v1.3.0</title></g><g transform="translate(330 282)"><path d="M0 12h17V5h12v7h20v19H0z" fill="#111b34"/><path d="M10 7h8V0h9v7z" fill="#33476d"/></g></g><rect x="4" y="4" width="892" height="312" rx="10" fill="none" stroke="#020617" stroke-width="8"/><text x="876" y="304" text-anchor="end" class="tiny" opacity=".75">REPO AQUARIUM · STILL</text></svg>